<svg width="150" height="87" viewBox="0 0 150 87" fill="none" xmlns="http://www.w3.org/2000/svg">
    <path d="M51.9679 65.3925C48.6163 65.3925 45.7494 64.4528 43.3672 62.5735C40.9008 60.5808 39.013 57.9844 37.8941 55.0461C36.5998 51.7467 35.9563 48.2354 35.998 44.6997C36.028 41.0404 36.6238 37.4067 37.765 33.9232C38.9852 30.1454 40.8175 26.5857 43.1913 23.3809C45.9602 19.6881 49.907 17.0113 54.4035 15.7767C55.8519 15.3414 57.3573 15.1162 58.8719 15.1084C61.7213 15.1015 64.4746 16.1192 66.6126 17.9696C68.8566 19.9053 69.9786 22.7408 69.9786 26.4764C69.9554 28.6937 69.5592 30.892 68.8057 32.9823C68.0419 35.1944 66.9169 37.2697 65.4749 39.1271C64.0362 40.9869 62.2221 42.5349 60.1464 43.6743C57.9487 44.8619 55.4726 45.463 52.9648 45.4179C52.0478 45.4097 51.1329 45.3314 50.2282 45.1836H49.9898C49.7239 45.1836 49.5988 45.3641 49.5988 45.7328C49.629 47.9002 50.0335 50.0469 50.7951 52.0812C51.7255 54.534 53.0821 55.7617 54.8648 55.7643C55.9197 55.7008 56.9384 55.3628 57.8164 54.785C58.583 54.2411 59.2685 53.5947 59.8532 52.8647L59.9705 52.7072C60.7301 51.6633 61.8053 50.8812 63.0433 50.472C63.3979 50.397 63.7595 50.3584 64.1223 50.3568C65.2487 50.3599 66.328 50.8013 67.1237 51.5845C67.9195 52.3677 68.3669 53.4288 68.3679 54.5353L68.3249 55.1997C67.8636 57.8292 66.3298 60.026 63.7235 61.7901C59.5535 64.1917 55.635 65.3925 51.9679 65.3925ZM53.1681 36.3542C54.4304 36.3676 55.6637 35.9826 56.6866 35.2559C57.8568 34.4186 58.9202 32.981 59.8767 30.9429C60.8345 28.9075 61.3114 27.2061 61.3114 25.8504C61.3114 24.6982 60.768 24.126 59.6773 24.126C58.9423 24.1424 58.2421 24.4368 57.7226 24.9479C54.5404 27.3427 52.3634 30.8015 51.6044 34.6683C51.5099 34.9738 51.4561 35.2901 51.4441 35.6092C51.4297 35.7389 51.4605 35.8695 51.5315 35.9797C51.6025 36.09 51.7095 36.1733 51.835 36.216C52.2693 36.3302 52.7191 36.3769 53.1681 36.3542Z" fill="white"></path>
    <path d="M8.54545 13.9599C5.8636 13.9599 4.29983 13.0304 2.90418 11.2139C1.50852 9.39731 1.27004 8.16834 3.38112 5.67199C5.4922 3.17565 10.7386 1.62023 15.0429 0.725389C19.3471 -0.169455 24.1674 -1.21792 27.3653 4.15114C30.5632 9.5202 31.2747 14.9776 31.3138 24.022C31.3529 33.0665 30.6883 54.2739 24.2964 69.1291C17.9046 83.9843 13.2563 86.1887 9.12404 86.761C4.9918 87.3332 1.00811 85.1287 0.390428 83.1317C-0.227258 81.1346 -0.160798 80.9118 1.22704 79.7712C2.61488 78.6306 12.1069 72.2245 14.6871 56.1135C17.2673 40.0025 17.107 16.2027 16.849 13.7486C16.591 11.2945 11.6847 13.9599 8.54545 13.9599Z" fill="white"></path>
    <path d="M83.626 15.1351C80.2561 15.3963 78.9777 16.7289 77.1716 23.5151C75.3654 30.3014 73.1683 39.3074 72.7148 43.4321C72.2613 47.5569 70.7797 60.6185 72.0072 62.7116C73.2348 64.8047 76.0105 67.7849 80.5258 66.2641C85.0412 64.7432 87.3048 52.6917 88.0163 47.2995C88.7278 41.9074 91.05 27.5131 90.5339 22.3745C90.0179 17.2359 87.8247 14.8048 83.626 15.1351Z" fill="white"></path>
    <path d="M96.2135 22.5012C99.2981 21.399 104.349 21.5065 105.381 27.1329C106.413 32.7593 107.383 38.8465 106.093 44.7225C104.803 50.5985 104.247 52.7531 99.2942 53.3253C94.3409 53.8975 92.6482 48.2942 92.4722 44.7225C92.2963 41.1508 91.1157 24.3408 96.2135 22.5012Z" fill="white"></path>
    <path d="M112.289 21.3607C117.958 19.3559 120.812 22.0597 122.102 26.1806C123.392 30.3014 125.46 37.7406 125.718 40.2062C125.976 42.6718 128.107 58.779 126.817 62.078C125.526 65.377 121.136 65.4999 118.36 64.678C115.585 63.8562 113.712 58.6522 111.902 49.6462C110.092 40.6402 108.481 35.947 108.681 30.5549C108.88 25.1628 109.072 22.5013 112.289 21.3607Z" fill="white"></path>
    <path d="M144.679 16.6106C140.183 16.311 132.712 21.6993 129.784 27.6175C126.856 33.5358 126.688 38.997 130.656 42.8951C134.624 46.7933 138.306 46.824 138.177 49.0746C138.048 51.3251 132.466 52.8191 131.078 56.0835C129.69 59.348 131.656 63.803 136.5 63.803C141.344 63.803 146.184 60.5232 148.443 55.6073C150.703 50.6914 150.672 45.9253 147.216 40.1914C143.76 34.4575 140.437 36.4546 142.568 31.8267C144.698 27.1989 147.47 26.2772 148.67 25.102C149.87 23.9268 150.605 21.296 149.186 19.5217C147.767 17.7474 146.657 16.7411 144.679 16.6106Z" fill="white"></path>
</svg>