<svg width="80" height="105" viewBox="0 0 106 105" fill="none" xmlns="http://www.w3.org/2000/svg">
    <g clip-path="url(#clip0_619_15009)">
        
        <path d="M36.7996 25.3C33.2996 25.6 31.9996 27 30.1996 34.1C28.2996 41.2 26.0996 50.6 25.5996 54.9C25.0996 59.2 23.5996 72.8 24.8996 75C26.1996 77.2 28.9996 80.3 33.5996 78.7C38.1996 77.1 40.5996 64.5 41.2996 58.9C41.9996 53.3 44.3996 38.2 43.8996 32.9C43.3996 27.5 41.1996 25 36.7996 25.3Z" fill="black"></path>
        <path d="M45.8997 56.2C46.0997 59.9 47.7997 65.8 52.8997 65.2C57.9997 64.6 58.4997 62.4 59.8997 56.2C61.1997 50.1 60.1997 43.7 59.1997 37.8C58.1997 31.9 52.8997 31.8 49.7997 33C44.4997 34.9 45.6997 52.5 45.8997 56.2Z" fill="black"></path>
        <path d="M62.4995 41.4C62.2995 47 63.9995 51.9 65.7995 61.3C67.6995 70.7 69.5995 76.1 72.3995 77C75.1995 77.9 79.7995 77.7 81.0995 74.3C82.3995 70.9 80.1995 54 79.9995 51.5C79.6995 48.9 77.5995 41.2 76.2995 36.9C74.9995 32.6 71.9995 29.8 66.1995 31.9C62.8995 33 62.6995 35.8 62.4995 41.4Z" fill="black"></path>
    </g>
    <defs>
        <linearGradient id="paint0_linear_619_15009" x1="11.3104" y1="83.6309" x2="94.707" y2="20.787" gradientUnits="userSpaceOnUse">
            <stop offset="0.15" stop-color="#FFBD11"></stop>
            <stop offset="0.2964" stop-color="#FF9E32"></stop>
            <stop offset="0.49" stop-color="#FF7A58"></stop>
            <stop offset="0.6697" stop-color="#FF6173"></stop>
            <stop offset="0.8286" stop-color="#FF5183"></stop>
            <stop offset="0.95" stop-color="#FF4C89"></stop>
        </linearGradient>
        <clipPath id="clip0_619_15009">
            <rect width="104.4" height="104.4" fill="white" transform="translate(0.799805)"></rect>
        </clipPath>
    </defs>
</svg>